<svg width="14" height="14" viewBox="0 0 14 14" fill="none" xmlns="http://www.w3.org/2000/svg">
<path d="M13.2125 3.24405V9.66655C13.2125 9.78905 13.1075 9.89405 12.985 9.89405H12.9675C11.025 9.80655 9.0475 10.384 7.105 11.574C7.105 11.574 7.105 11.574 7.0875 11.574V11.5915C7.07 11.609 7.0525 11.609 7.035 11.609C7.0175 11.6265 7 11.6265 6.9825 11.6265C6.93 11.6265 6.895 11.609 6.86 11.5915C4.935 10.384 2.975 9.80655 1.0325 9.89405C0.91 9.91155 0.77 9.80655 0.77 9.66655V3.24405H0V10.839C2.3275 10.8565 4.69 11.4165 7.0175 12.5365C9.3275 11.4165 11.6725 10.8215 14 10.8215V3.24405H13.2125Z" fill="white"/>
<path d="M6.7726 10.9965V3.64654C4.9351 2.52654 3.0626 1.96655 1.2251 2.00155V9.43905H1.3826C3.1676 9.43905 4.9876 9.94655 6.7726 10.9965Z" fill="white"/>
<path d="M12.775 2.00155C10.955 1.96655 9.06504 2.52654 7.22754 3.64654V11.014C9.06504 9.94655 10.9375 9.42155 12.775 9.45655V2.00155Z" fill="white"/>
</svg>
