<svg width="28" height="24" viewBox="0 0 28 24" fill="none" xmlns="http://www.w3.org/2000/svg">
<path fill-rule="evenodd" clip-rule="evenodd" d="M17.9485 1.94059C17.9485 1.1826 18.1597 0 17.3302 0H10.6691C9.85348 0 10.0508 1.07818 10.0508 1.94059H17.9485ZM5.48741 14.661L1.2442 14.0931V22.7639C1.2442 23.0031 1.48171 23.1668 1.73009 23.1668H26.2699C26.518 23.1668 26.7558 23.0031 26.7558 22.7639V14.0934L22.5126 14.6613C22.5126 15.3695 22.6065 15.9401 22.0972 16.449C21.5435 17.0025 20.6547 17.0034 20.0986 16.4481L20.0973 16.449C19.6243 15.976 19.6819 15.5026 19.6819 14.9064C15.9111 15.1623 12.0886 15.1623 8.31775 14.9064C8.31775 15.5026 8.37539 15.976 7.90235 16.449C7.00766 17.3437 5.48741 16.6968 5.48741 15.4493V14.661ZM22.5123 13.6645C22.5123 13.0851 22.6516 12.2945 22.0152 12.2945C19.4151 12.2945 19.6819 12.02 19.6819 13.9109C15.9388 14.1701 12.0609 14.1701 8.31775 13.9109C8.31775 13.1763 8.48212 12.2945 7.82066 12.2945C5.28943 12.2945 5.48741 12.0579 5.48741 13.6645L0 12.8676V3.33731C0 3.09519 0.297133 2.93443 0.562642 2.93443H27.4374C27.7032 2.93443 28 3.09552 28 3.33731V12.8676L22.5123 13.6645ZM21.5181 13.2886V15.4493C21.5181 15.7856 21.1119 16.029 20.799 15.7474L20.8 15.7464C20.7235 15.67 20.6758 15.5646 20.6758 15.4493V13.2886H21.5181ZM7.32357 13.2886V15.4493C7.32357 16.0027 6.48125 16.0027 6.48125 15.4493V13.2886H7.32357Z" fill="#FFB708"/>
</svg>
