<svg width="30" height="30" viewBox="0 0 30 30" fill="none" xmlns="http://www.w3.org/2000/svg">
<path fill-rule="evenodd" clip-rule="evenodd" d="M15 21.8744C17.2437 21.8744 19.0625 23.6931 19.0625 25.9368C19.0625 28.1806 17.2437 29.9993 15 29.9993C12.7563 29.9993 10.9375 28.1806 10.9375 25.9368C10.9375 23.6935 12.7563 21.8744 15 21.8744ZM13.4518 19.6627L4.43351 10.6392H25.5668L16.6588 19.5521V21.2856C15.6308 20.9191 14.4878 20.9056 13.4515 21.2477L13.4518 19.6627ZM3.99604 9.76422V7.05001H26.0036V9.76422H3.99604ZM27.6561 0C28.9505 0 30 1.04917 30 2.34386C30 3.63855 28.9508 4.68772 27.6561 4.68772C26.3618 4.68772 25.3123 3.63855 25.3123 2.34386C25.3123 1.04917 26.3615 0 27.6561 0ZM2.34386 0C3.6382 0 4.68772 1.04917 4.68772 2.34386C4.68772 3.63855 3.63854 4.68772 2.34386 4.68772C1.04952 4.68772 0 3.63855 0 2.34386C0 1.04917 1.04952 0 2.34386 0ZM10.7814 4.70615C11.7666 4.70615 12.6095 5.31402 12.9563 6.17471H8.60655C8.95326 5.31367 9.79622 4.70615 10.7814 4.70615ZM19.2186 2.36229C20.5129 2.36229 21.5625 3.41146 21.5625 4.70615C21.5625 5.26221 21.3688 5.77306 21.045 6.17471H17.3922C17.0684 5.77271 16.8747 5.26221 16.8747 4.70615C16.8751 3.41146 17.9243 2.36229 19.2186 2.36229ZM13.7074 27.9396C13.9672 28.1844 14.2217 28.3795 14.5726 28.4664L14.5782 28.7025C14.5837 28.9432 14.7837 29.1337 15.0243 29.1282C15.265 29.1226 15.4556 28.9227 15.45 28.682L15.4444 28.4577C16.1041 28.2838 16.6251 27.7205 16.6251 27.017C16.6251 26.142 15.8395 25.5188 15 25.5188C14.6442 25.5188 14.2482 25.2855 14.2482 24.8957C14.2482 24.5072 14.6453 24.2708 15 24.2708C15.1607 24.2708 15.5981 24.4255 15.6896 24.5643C15.8217 24.7653 16.0919 24.8213 16.2929 24.6891C16.4939 24.557 16.5499 24.2868 16.4178 24.0858C16.2133 23.7749 15.7838 23.5617 15.4288 23.4647L15.4218 23.1708C15.4163 22.9302 15.2163 22.7396 14.9757 22.7452C14.735 22.7507 14.5444 22.9507 14.55 23.1913L14.5563 23.4546C13.8962 23.6281 13.3746 24.1918 13.3746 24.8957C13.3746 25.7706 14.1602 26.3938 14.9997 26.3938C15.3564 26.3938 15.7498 26.6257 15.7498 27.017C15.7498 27.4078 15.3564 27.6401 14.9997 27.6401C14.6766 27.6401 14.5312 27.5174 14.3052 27.3039C14.1296 27.1387 13.8535 27.147 13.6883 27.3226C13.5234 27.4983 13.5318 27.7744 13.7074 27.9396Z" fill="#FFB708"/>
</svg>
