<svg width="324" height="47" viewBox="0 0 324 47" fill="none" xmlns="http://www.w3.org/2000/svg">
<rect x="0.5" width="130" height="47" fill="#93FD31"/>
<path d="M100.5 23.5L70.5 43.8516L70.5 3.1484L100.5 23.5Z" fill="#4324FB"/>
<path d="M70.5 23.5L40.5 43.8516L40.5 3.1484L70.5 23.5Z" fill="#4324FB"/>
<path d="M40.5 23.5L10.5 43.8516L10.5 3.1484L40.5 23.5Z" fill="#4324FB"/>
<path d="M130.5 23.5L100.5 43.8516L100.5 3.1484L130.5 23.5Z" fill="#4324FB"/>
<rect width="194" height="47" transform="translate(130.5)" fill="#4324FB"/>
<path d="M161.204 17.576V25.8C161.204 27.016 160.921 27.8853 160.356 28.408C159.791 28.92 158.927 29.176 157.764 29.176C157.156 29.176 156.655 29.096 156.26 28.936C155.876 28.7653 155.567 28.5307 155.332 28.232C155.108 27.9227 154.953 27.5653 154.868 27.16C154.783 26.7547 154.74 26.328 154.74 25.88V25.384H156.852V25.736C156.852 26.344 156.916 26.7973 157.044 27.096C157.183 27.384 157.46 27.528 157.876 27.528C158.292 27.528 158.564 27.384 158.692 27.096C158.831 26.7973 158.9 26.344 158.9 25.736V17.576H161.204ZM164.77 23.288C164.77 24.056 164.786 24.712 164.818 25.256C164.861 25.7893 164.936 26.2267 165.042 26.568C165.16 26.8987 165.32 27.144 165.522 27.304C165.736 27.4533 166.013 27.528 166.354 27.528C166.696 27.528 166.968 27.4533 167.17 27.304C167.384 27.144 167.544 26.8987 167.65 26.568C167.768 26.2267 167.842 25.7893 167.874 25.256C167.917 24.712 167.938 24.056 167.938 23.288C167.938 22.52 167.917 21.8693 167.874 21.336C167.842 20.8027 167.768 20.3653 167.65 20.024C167.544 19.6827 167.384 19.4373 167.17 19.288C166.968 19.128 166.696 19.048 166.354 19.048C166.013 19.048 165.736 19.128 165.522 19.288C165.32 19.4373 165.16 19.6827 165.042 20.024C164.936 20.3653 164.861 20.8027 164.818 21.336C164.786 21.8693 164.77 22.52 164.77 23.288ZM162.466 23.288C162.466 22.424 162.504 21.6293 162.578 20.904C162.664 20.168 162.84 19.5387 163.106 19.016C163.384 18.4933 163.778 18.088 164.29 17.8C164.802 17.5013 165.49 17.352 166.354 17.352C167.218 17.352 167.906 17.5013 168.418 17.8C168.93 18.088 169.32 18.4933 169.586 19.016C169.864 19.5387 170.04 20.168 170.114 20.904C170.2 21.6293 170.242 22.424 170.242 23.288C170.242 24.1627 170.2 24.9627 170.114 25.688C170.04 26.4133 169.864 27.0373 169.586 27.56C169.32 28.0827 168.93 28.4827 168.418 28.76C167.906 29.0373 167.218 29.176 166.354 29.176C165.49 29.176 164.802 29.0373 164.29 28.76C163.778 28.4827 163.384 28.0827 163.106 27.56C162.84 27.0373 162.664 26.4133 162.578 25.688C162.504 24.9627 162.466 24.1627 162.466 23.288ZM171.709 29V17.576H174.013V29H171.709ZM178.378 17.576L181.162 25.4H181.194V17.576H183.306V29H180.682L177.866 21H177.834V29H175.722V17.576H178.378ZM194.847 17.576V19.464H192.351V29H190.047V19.464H187.551V17.576H194.847ZM195.847 17.576H198.151V21.944H200.839V17.576H203.143V29H200.839V23.928H198.151V29H195.847V17.576ZM211.122 17.576V19.464H207.042V22.152H210.882V24.04H207.042V27.112H211.282V29H204.738V17.576H211.122ZM218.94 17.576L221.724 25.4H221.756V17.576H223.868V29H221.244L218.428 21H218.396V29H216.284V17.576H218.94ZM231.856 17.576V19.464H227.776V22.152H231.616V24.04H227.776V27.112H232.016V29H225.472V17.576H231.856ZM232.503 17.576H234.711L235.975 26.024H236.007L237.351 17.576H239.559L240.903 26.024H240.935L242.199 17.576H244.407L242.327 29H239.751L238.471 20.712H238.439L237.159 29H234.583L232.503 17.576ZM247.187 25.432V25.768C247.187 26.0347 247.209 26.28 247.251 26.504C247.294 26.7173 247.374 26.8987 247.491 27.048C247.609 27.1973 247.763 27.3147 247.955 27.4C248.158 27.4853 248.409 27.528 248.707 27.528C249.059 27.528 249.374 27.416 249.651 27.192C249.939 26.9573 250.083 26.6 250.083 26.12C250.083 25.864 250.046 25.6453 249.971 25.464C249.907 25.272 249.795 25.1013 249.635 24.952C249.475 24.8027 249.262 24.6693 248.995 24.552C248.739 24.424 248.419 24.296 248.035 24.168C247.523 23.9973 247.081 23.8107 246.707 23.608C246.334 23.4053 246.019 23.1707 245.763 22.904C245.518 22.6267 245.337 22.312 245.219 21.96C245.102 21.5973 245.043 21.1813 245.043 20.712C245.043 19.5813 245.358 18.7387 245.987 18.184C246.617 17.6293 247.481 17.352 248.579 17.352C249.091 17.352 249.561 17.4107 249.987 17.528C250.425 17.6347 250.798 17.816 251.107 18.072C251.427 18.3173 251.673 18.6373 251.843 19.032C252.025 19.416 252.115 19.88 252.115 20.424V20.744H249.907C249.907 20.2 249.811 19.784 249.619 19.496C249.427 19.1973 249.107 19.048 248.659 19.048C248.403 19.048 248.19 19.0853 248.019 19.16C247.849 19.2347 247.71 19.336 247.603 19.464C247.507 19.5813 247.438 19.72 247.395 19.88C247.363 20.04 247.347 20.2053 247.347 20.376C247.347 20.728 247.422 21.0267 247.571 21.272C247.721 21.5067 248.041 21.7253 248.531 21.928L250.307 22.696C250.745 22.888 251.102 23.0907 251.379 23.304C251.657 23.5067 251.875 23.7307 252.035 23.976C252.206 24.2107 252.323 24.472 252.387 24.76C252.451 25.048 252.483 25.368 252.483 25.72C252.483 26.9253 252.131 27.8053 251.427 28.36C250.734 28.904 249.763 29.176 248.515 29.176C247.214 29.176 246.281 28.8933 245.715 28.328C245.161 27.7627 244.883 26.952 244.883 25.896V25.432H247.187ZM253.628 29V17.576H255.932V27.112H260.012V29H253.628ZM267.418 17.576V19.464H263.338V22.152H267.178V24.04H263.338V27.112H267.578V29H261.034V17.576H267.418ZM275.426 17.576V19.464H272.93V29H270.626V19.464H268.13V17.576H275.426ZM283.113 17.576V19.464H280.617V29H278.313V19.464H275.817V17.576H283.113ZM290.497 17.576V19.464H286.417V22.152H290.257V24.04H286.417V27.112H290.657V29H284.113V17.576H290.497ZM291.816 17.576H296.072C297.032 17.576 297.778 17.8213 298.312 18.312C298.845 18.792 299.112 19.528 299.112 20.52C299.112 21.288 298.957 21.9173 298.648 22.408C298.338 22.888 297.858 23.1973 297.208 23.336V23.368C297.784 23.4533 298.205 23.64 298.472 23.928C298.738 24.216 298.904 24.68 298.968 25.32C298.989 25.5333 299.005 25.768 299.016 26.024C299.026 26.2693 299.037 26.5467 299.048 26.856C299.069 27.464 299.101 27.928 299.144 28.248C299.208 28.568 299.346 28.7867 299.56 28.904V29H297.064C296.946 28.84 296.872 28.6587 296.84 28.456C296.808 28.2427 296.786 28.024 296.776 27.8L296.712 25.608C296.69 25.16 296.578 24.808 296.376 24.552C296.173 24.296 295.832 24.168 295.352 24.168H294.12V29H291.816V17.576ZM294.12 22.568H295.08C295.634 22.568 296.061 22.44 296.36 22.184C296.658 21.9173 296.808 21.4747 296.808 20.856C296.808 19.8 296.274 19.272 295.208 19.272H294.12V22.568Z" fill="white"/>
</svg>
