<svg width="32" height="32" viewBox="0 0 32 32" fill="none" xmlns="http://www.w3.org/2000/svg">
<rect x="0.373047" y="0.375" width="31.25" height="31.25" rx="5.625" fill="#18202D" stroke="#93FD31" stroke-width="0.75"/>
<path d="M25.9961 8.50914C25.1255 9.12321 24.1616 9.59288 23.1415 9.90005C22.594 9.27051 21.8664 8.82432 21.057 8.6218C20.2477 8.41929 19.3956 8.47023 18.6162 8.76774C17.8367 9.06524 17.1674 9.59496 16.6988 10.2852C16.2302 10.9755 15.9849 11.7931 15.9961 12.6273V13.5364C14.3985 13.5778 12.8154 13.2235 11.3879 12.505C9.96041 11.7865 8.73275 10.7261 7.81428 9.41823C7.81428 9.41823 4.17791 17.6001 12.3597 21.2364C10.4875 22.5073 8.25715 23.1445 5.99609 23.0546C14.1779 27.6 24.1779 23.0546 24.1779 12.6001C24.1771 12.3468 24.1527 12.0942 24.1052 11.8455C25.033 10.9305 25.6878 9.77524 25.9961 8.50914Z" stroke="white" stroke-linecap="round" stroke-linejoin="round"/>
</svg>
