<svg width="32" height="32" viewBox="0 0 32 32" fill="none" xmlns="http://www.w3.org/2000/svg">
<rect x="0.373047" y="0.375" width="31.25" height="31.25" rx="5.625" fill="#18202D" stroke="#93FD31" stroke-width="0.75"/>
<path d="M20.2614 12.6842C21.7689 12.6842 23.2147 13.2831 24.2807 14.3491C25.3467 15.4151 25.9456 16.8609 25.9456 18.3684V25H22.1561V18.3684C22.1561 17.8659 21.9565 17.384 21.6011 17.0286C21.2458 16.6733 20.7639 16.4737 20.2614 16.4737C19.7588 16.4737 19.2769 16.6733 18.9216 17.0286C18.5662 17.384 18.3666 17.8659 18.3666 18.3684V25H14.5771V18.3684C14.5771 16.8609 15.176 15.4151 16.242 14.3491C17.308 13.2831 18.7538 12.6842 20.2614 12.6842Z" stroke="white" stroke-linecap="round" stroke-linejoin="round"/>
<path d="M10.7875 13.6316H6.99805V25H10.7875V13.6316Z" stroke="white" stroke-linecap="round" stroke-linejoin="round"/>
<path d="M8.89278 10.7895C9.93922 10.7895 10.7875 9.94117 10.7875 8.89474C10.7875 7.8483 9.93922 7 8.89278 7C7.84635 7 6.99805 7.8483 6.99805 8.89474C6.99805 9.94117 7.84635 10.7895 8.89278 10.7895Z" stroke="white" stroke-linecap="round" stroke-linejoin="round"/>
</svg>
